<?xml version="1.0" encoding="UTF-8" standalone="no"?>
<!DOCTYPE svg PUBLIC "-//W3C//DTD SVG 1.1//EN"
 "http://www.w3.org/Graphics/SVG/1.1/DTD/svg11.dtd">
<!-- Generated by graphviz version 2.38.0 (20140413.2041)
 -->
<!-- Title: dependencies Pages: 1 -->
<svg width="2833pt" height="428pt"
 viewBox="0.00 0.00 2833.00 428.00" xmlns="http://www.w3.org/2000/svg" xmlns:xlink="http://www.w3.org/1999/xlink">
<g id="graph0" class="graph" transform="scale(1 1) rotate(0) translate(4 424)">
<title>dependencies</title>
<polygon fill="white" stroke="none" points="-4,4 -4,-424 2829,-424 2829,4 -4,4"/>
<text text-anchor="start" x="1391.51" y="-42.4" font-family="sans-serif" font-weight="bold" font-size="14.00">Legend</text>
<polygon fill="#ffffb3" stroke="none" points="1178.5,-10 1178.5,-30 1198.5,-30 1198.5,-10 1178.5,-10"/>
<text text-anchor="start" x="1202.13" y="-15.4" font-family="sans-serif" font-size="14.00"> &#160;Declarations</text>
<polygon fill="#8dd3c7" stroke="none" points="1291.5,-10 1291.5,-30 1311.5,-30 1311.5,-10 1291.5,-10"/>
<text text-anchor="start" x="1315.23" y="-15.4" font-family="sans-serif" font-size="14.00"> &#160;Module</text>
<polygon fill="#80b1d3" stroke="none" points="1377.5,-10 1377.5,-30 1397.5,-30 1397.5,-10 1377.5,-10"/>
<text text-anchor="start" x="1401.28" y="-15.4" font-family="sans-serif" font-size="14.00"> &#160;Bootstrap</text>
<polygon fill="#fdb462" stroke="none" points="1474.5,-10 1474.5,-30 1494.5,-30 1494.5,-10 1474.5,-10"/>
<text text-anchor="start" x="1498.17" y="-15.4" font-family="sans-serif" font-size="14.00"> &#160;Providers</text>
<polygon fill="#fb8072" stroke="none" points="1570.5,-10 1570.5,-30 1590.5,-30 1590.5,-10 1570.5,-10"/>
<text text-anchor="start" x="1594.23" y="-15.4" font-family="sans-serif" font-size="14.00"> &#160;Exports</text>
<g id="clust1" class="cluster"><title>cluster_AboutModule</title>
<polygon fill="none" stroke="black" stroke-dasharray="1,5" points="8,-70 8,-282 292,-282 292,-70 8,-70"/>
</g>
<g id="clust2" class="cluster"><title>cluster_AboutModule_declarations</title>
<polygon fill="none" stroke="black" points="16,-78 16,-130 148,-130 148,-78 16,-78"/>
</g>
<g id="clust4" class="cluster"><title>cluster_AboutModule_imports</title>
<polygon fill="none" stroke="black" points="156,-78 156,-130 284,-130 284,-78 156,-78"/>
</g>
<g id="clust5" class="cluster"><title>cluster_AboutModule_exports</title>
<polygon fill="none" stroke="black" points="132,-222 132,-274 268,-274 268,-222 132,-222"/>
</g>
<g id="clust8" class="cluster"><title>cluster_AppModule</title>
<polygon fill="none" stroke="black" stroke-dasharray="1,5" points="300,-214 300,-412 1721,-412 1721,-214 300,-214"/>
</g>
<g id="clust9" class="cluster"><title>cluster_AppModule_declarations</title>
<polygon fill="none" stroke="black" points="1591,-222 1591,-274 1713,-274 1713,-222 1591,-222"/>
</g>
<g id="clust11" class="cluster"><title>cluster_AppModule_imports</title>
<polygon fill="none" stroke="black" points="878,-222 878,-274 1583,-274 1583,-222 878,-222"/>
</g>
<g id="clust13" class="cluster"><title>cluster_AppModule_bootstrap</title>
<polygon fill="none" stroke="black" points="1120,-352 1120,-404 1244,-404 1244,-352 1120,-352"/>
</g>
<g id="clust14" class="cluster"><title>cluster_AppModule_providers</title>
<polygon fill="none" stroke="black" points="308,-222 308,-274 870,-274 870,-222 308,-222"/>
</g>
<g id="clust15" class="cluster"><title>cluster_HomeModule</title>
<polygon fill="none" stroke="black" stroke-dasharray="1,5" points="1385,-138 1385,-206 1979,-206 1979,-138 1385,-138"/>
</g>
<g id="clust16" class="cluster"><title>cluster_HomeModule_declarations</title>
<polygon fill="none" stroke="black" points="1717,-146 1717,-198 1849,-198 1849,-146 1717,-146"/>
</g>
<g id="clust18" class="cluster"><title>cluster_HomeModule_imports</title>
<polygon fill="none" stroke="black" points="1857,-146 1857,-198 1971,-198 1971,-146 1857,-146"/>
</g>
<g id="clust19" class="cluster"><title>cluster_HomeModule_exports</title>
<polygon fill="none" stroke="black" points="1393,-146 1393,-198 1529,-198 1529,-146 1393,-146"/>
</g>
<g id="clust21" class="cluster"><title>cluster_HomeModule_providers</title>
<polygon fill="none" stroke="black" points="1537,-146 1537,-198 1709,-198 1709,-146 1537,-146"/>
</g>
<g id="clust22" class="cluster"><title>cluster_SharedModule</title>
<polygon fill="none" stroke="black" stroke-dasharray="1,5" points="1729,-214 1729,-282 2817,-282 2817,-214 1729,-214"/>
</g>
<g id="clust23" class="cluster"><title>cluster_SharedModule_declarations</title>
<polygon fill="none" stroke="black" points="2527,-222 2527,-274 2809,-274 2809,-222 2527,-222"/>
</g>
<g id="clust26" class="cluster"><title>cluster_SharedModule_imports</title>
<polygon fill="none" stroke="black" points="2405,-222 2405,-274 2519,-274 2519,-222 2405,-222"/>
</g>
<g id="clust27" class="cluster"><title>cluster_SharedModule_exports</title>
<polygon fill="none" stroke="black" points="1737,-222 1737,-274 2397,-274 2397,-222 1737,-222"/>
</g>
<!-- AboutComponent -->
<g id="node1" class="node"><title>AboutComponent</title>
<polygon fill="#ffffb3" stroke="black" points="140.33,-122 23.6699,-122 23.6699,-86 140.33,-86 140.33,-122"/>
<text text-anchor="middle" x="82" y="-99.8" font-family="Times,serif" font-size="14.00">AboutComponent</text>
</g>
<!-- AboutModule -->
<g id="node2" class="node"><title>AboutModule</title>
<polygon fill="#8dd3c7" stroke="black" points="257.048,-190 254.048,-194 233.048,-194 230.048,-190 162.952,-190 162.952,-154 257.048,-154 257.048,-190"/>
<text text-anchor="middle" x="210" y="-167.8" font-family="Times,serif" font-size="14.00">AboutModule</text>
</g>
<!-- AboutComponent&#45;&gt;AboutModule -->
<g id="edge1" class="edge"><title>AboutComponent&#45;&gt;AboutModule</title>
<path fill="none" stroke="black" d="M81.9602,-122.223C81.9602,-142.365 81.9602,-172 81.9602,-172 81.9602,-172 152.686,-172 152.686,-172"/>
<polygon fill="black" stroke="black" points="152.687,-175.5 162.686,-172 152.686,-168.5 152.687,-175.5"/>
</g>
<!-- AboutComponent  -->
<g id="node4" class="node"><title>AboutComponent </title>
<polygon fill="#fb8072" stroke="black" points="259.83,-266 140.17,-266 140.17,-230 259.83,-230 259.83,-266"/>
<text text-anchor="middle" x="200" y="-243.8" font-family="Times,serif" font-size="14.00">AboutComponent </text>
</g>
<!-- AboutModule&#45;&gt;AboutComponent  -->
<g id="edge3" class="edge"><title>AboutModule&#45;&gt;AboutComponent </title>
<path fill="none" stroke="black" stroke-dasharray="5,2" d="M210,-190.011C210,-190.011 210,-219.855 210,-219.855"/>
<polygon fill="black" stroke="black" points="206.5,-219.855 210,-229.855 213.5,-219.855 206.5,-219.855"/>
</g>
<!-- AppModule -->
<g id="node6" class="node"><title>AppModule</title>
<polygon fill="#8dd3c7" stroke="black" points="1223.66,-331 1220.66,-335 1199.66,-335 1196.66,-331 1140.34,-331 1140.34,-295 1223.66,-295 1223.66,-331"/>
<text text-anchor="middle" x="1182" y="-308.8" font-family="Times,serif" font-size="14.00">AppModule</text>
</g>
<!-- AboutModule&#45;&gt;AppModule -->
<g id="edge8" class="edge"><title>AboutModule&#45;&gt;AppModule</title>
<path fill="none" stroke="black" d="M257.165,-166C449.079,-166 1161.11,-166 1161.11,-166 1161.11,-166 1161.11,-284.975 1161.11,-284.975"/>
<polygon fill="black" stroke="black" points="1157.61,-284.975 1161.11,-294.975 1164.61,-284.975 1157.61,-284.975"/>
</g>
<!-- CommonModule -->
<g id="node3" class="node"><title>CommonModule</title>
<polygon fill="#8dd3c7" stroke="black" points="275.668,-122 272.668,-126 251.668,-126 248.668,-122 164.332,-122 164.332,-86 275.668,-86 275.668,-122"/>
<text text-anchor="middle" x="220" y="-99.8" font-family="Times,serif" font-size="14.00">CommonModule</text>
</g>
<!-- CommonModule&#45;&gt;AboutModule -->
<g id="edge2" class="edge"><title>CommonModule&#45;&gt;AboutModule</title>
<path fill="none" stroke="black" d="M210.72,-122.223C210.72,-122.223 210.72,-143.727 210.72,-143.727"/>
<polygon fill="black" stroke="black" points="207.22,-143.727 210.72,-153.727 214.22,-143.727 207.22,-143.727"/>
</g>
<!-- HomeModule -->
<g id="node10" class="node"><title>HomeModule</title>
<polygon fill="#8dd3c7" stroke="black" points="1151.76,-266 1148.76,-270 1127.76,-270 1124.76,-266 1058.24,-266 1058.24,-230 1151.76,-230 1151.76,-266"/>
<text text-anchor="middle" x="1105" y="-243.8" font-family="Times,serif" font-size="14.00">HomeModule</text>
</g>
<!-- CommonModule&#45;&gt;HomeModule -->
<g id="edge14" class="edge"><title>CommonModule&#45;&gt;HomeModule</title>
<path fill="none" stroke="black" d="M275.687,-110C465.249,-110 1073.75,-110 1073.75,-110 1073.75,-110 1073.75,-219.959 1073.75,-219.959"/>
<polygon fill="black" stroke="black" points="1070.25,-219.959 1073.75,-229.959 1077.25,-219.959 1070.25,-219.959"/>
</g>
<!-- SharedModule -->
<g id="node15" class="node"><title>SharedModule</title>
<polygon fill="#8dd3c7" stroke="black" points="1963.42,-190 1960.42,-194 1939.42,-194 1936.42,-190 1864.58,-190 1864.58,-154 1963.42,-154 1963.42,-190"/>
<text text-anchor="middle" x="1914" y="-167.8" font-family="Times,serif" font-size="14.00">SharedModule</text>
</g>
<!-- CommonModule&#45;&gt;SharedModule -->
<g id="edge20" class="edge"><title>CommonModule&#45;&gt;SharedModule</title>
<path fill="none" stroke="black" d="M275.88,-98C568.824,-98 1914,-98 1914,-98 1914,-98 1914,-143.708 1914,-143.708"/>
<polygon fill="black" stroke="black" points="1910.5,-143.708 1914,-153.708 1917.5,-143.708 1910.5,-143.708"/>
</g>
<!-- AppComponent -->
<g id="node5" class="node"><title>AppComponent</title>
<polygon fill="#ffffb3" stroke="black" points="1704.94,-266 1599.06,-266 1599.06,-230 1704.94,-230 1704.94,-266"/>
<text text-anchor="middle" x="1652" y="-243.8" font-family="Times,serif" font-size="14.00">AppComponent</text>
</g>
<!-- AppComponent&#45;&gt;AppModule -->
<g id="edge4" class="edge"><title>AppComponent&#45;&gt;AppModule</title>
<path fill="none" stroke="black" d="M1652,-266.292C1652,-288.206 1652,-322 1652,-322 1652,-322 1233.71,-322 1233.71,-322"/>
<polygon fill="black" stroke="black" points="1233.71,-318.5 1223.71,-322 1233.71,-325.5 1233.71,-318.5"/>
</g>
<!-- AppComponent  -->
<g id="node12" class="node"><title>AppComponent </title>
<polygon fill="#80b1d3" stroke="black" points="1236.44,-396 1127.56,-396 1127.56,-360 1236.44,-360 1236.44,-396"/>
<text text-anchor="middle" x="1182" y="-373.8" font-family="Times,serif" font-size="14.00">AppComponent </text>
</g>
<!-- AppModule&#45;&gt;AppComponent  -->
<g id="edge11" class="edge"><title>AppModule&#45;&gt;AppComponent </title>
<path fill="none" stroke="black" stroke-dasharray="1,5" d="M1182,-331.106C1182,-331.106 1182,-349.991 1182,-349.991"/>
<polygon fill="black" stroke="black" points="1178.5,-349.991 1182,-359.991 1185.5,-349.991 1178.5,-349.991"/>
</g>
<!-- BrowserModule -->
<g id="node7" class="node"><title>BrowserModule</title>
<polygon fill="#8dd3c7" stroke="black" points="1575.47,-266 1572.47,-270 1551.47,-270 1548.47,-266 1468.53,-266 1468.53,-230 1575.47,-230 1575.47,-266"/>
<text text-anchor="middle" x="1522" y="-243.8" font-family="Times,serif" font-size="14.00">BrowserModule</text>
</g>
<!-- BrowserModule&#45;&gt;AppModule -->
<g id="edge5" class="edge"><title>BrowserModule&#45;&gt;AppModule</title>
<path fill="none" stroke="black" d="M1522,-266.106C1522,-285.339 1522,-313 1522,-313 1522,-313 1233.69,-313 1233.69,-313"/>
<polygon fill="black" stroke="black" points="1233.69,-309.5 1223.69,-313 1233.69,-316.5 1233.69,-309.5"/>
</g>
<!-- HttpModule -->
<g id="node8" class="node"><title>HttpModule</title>
<polygon fill="#8dd3c7" stroke="black" points="1450.44,-266 1447.44,-270 1426.44,-270 1423.44,-266 1365.56,-266 1365.56,-230 1450.44,-230 1450.44,-266"/>
<text text-anchor="middle" x="1408" y="-243.8" font-family="Times,serif" font-size="14.00">HttpModule</text>
</g>
<!-- HttpModule&#45;&gt;AppModule -->
<g id="edge6" class="edge"><title>HttpModule&#45;&gt;AppModule</title>
<path fill="none" stroke="black" d="M1408,-266.027C1408,-282.398 1408,-304 1408,-304 1408,-304 1233.72,-304 1233.72,-304"/>
<polygon fill="black" stroke="black" points="1233.72,-300.5 1223.72,-304 1233.72,-307.5 1233.72,-300.5"/>
</g>
<!-- RouterModule.forRoot(args) -->
<g id="node9" class="node"><title>RouterModule.forRoot(args)</title>
<polygon fill="#8dd3c7" stroke="black" points="1347.84,-266 1344.84,-270 1323.84,-270 1320.84,-266 1170.16,-266 1170.16,-230 1347.84,-230 1347.84,-266"/>
<text text-anchor="middle" x="1259" y="-243.8" font-family="Times,serif" font-size="14.00">RouterModule.forRoot(args)</text>
</g>
<!-- RouterModule.forRoot(args)&#45;&gt;AppModule -->
<g id="edge7" class="edge"><title>RouterModule.forRoot(args)&#45;&gt;AppModule</title>
<path fill="none" stroke="black" d="M1197.08,-266.106C1197.08,-266.106 1197.08,-284.991 1197.08,-284.991"/>
<polygon fill="black" stroke="black" points="1193.58,-284.991 1197.08,-294.991 1200.58,-284.991 1193.58,-284.991"/>
</g>
<!-- HomeModule&#45;&gt;AppModule -->
<g id="edge9" class="edge"><title>HomeModule&#45;&gt;AppModule</title>
<path fill="none" stroke="black" d="M1146.03,-266.106C1146.03,-266.106 1146.03,-284.991 1146.03,-284.991"/>
<polygon fill="black" stroke="black" points="1142.53,-284.991 1146.03,-294.991 1149.53,-284.991 1142.53,-284.991"/>
</g>
<!-- HomeComponent  -->
<g id="node16" class="node"><title>HomeComponent </title>
<polygon fill="#fb8072" stroke="black" points="1520.54,-190 1401.46,-190 1401.46,-154 1520.54,-154 1520.54,-190"/>
<text text-anchor="middle" x="1461" y="-167.8" font-family="Times,serif" font-size="14.00">HomeComponent </text>
</g>
<!-- HomeModule&#45;&gt;HomeComponent  -->
<g id="edge16" class="edge"><title>HomeModule&#45;&gt;HomeComponent </title>
<path fill="none" stroke="black" stroke-dasharray="5,2" d="M1089.37,-229.973C1089.37,-209.233 1089.37,-178 1089.37,-178 1089.37,-178 1391.29,-178 1391.29,-178"/>
<polygon fill="black" stroke="black" points="1391.29,-181.5 1401.29,-178 1391.29,-174.5 1391.29,-181.5"/>
</g>
<!-- SharedModule.forRoot() -->
<g id="node11" class="node"><title>SharedModule.forRoot()</title>
<polygon fill="#8dd3c7" stroke="black" points="1040.29,-266 1037.29,-270 1016.29,-270 1013.29,-266 885.708,-266 885.708,-230 1040.29,-230 1040.29,-266"/>
<text text-anchor="middle" x="963" y="-243.8" font-family="Times,serif" font-size="14.00">SharedModule.forRoot()</text>
</g>
<!-- SharedModule.forRoot()&#45;&gt;AppModule -->
<g id="edge10" class="edge"><title>SharedModule.forRoot()&#45;&gt;AppModule</title>
<path fill="none" stroke="black" d="M963,-266.023C963,-283.373 963,-307 963,-307 963,-307 1130.29,-307 1130.29,-307"/>
<polygon fill="black" stroke="black" points="1130.29,-310.5 1140.29,-307 1130.29,-303.5 1130.29,-310.5"/>
</g>
<!-- { provide: APP_BASE_HREF, useValue: &#39;&lt;%= APP_BASE %&gt;&#39; } -->
<g id="node13" class="node"><title>{ provide: APP_BASE_HREF, useValue: &#39;&lt;%= APP_BASE %&gt;&#39; }</title>
<ellipse fill="#fdb462" stroke="black" cx="589" cy="-248" rx="273.41" ry="18"/>
<text text-anchor="middle" x="589" y="-243.8" font-family="Times,serif" font-size="14.00">{ provide: APP_BASE_HREF, useValue: &#39;&lt;%= APP_BASE %&gt;&#39; }</text>
</g>
<!-- { provide: APP_BASE_HREF, useValue: &#39;&lt;%= APP_BASE %&gt;&#39; }&#45;&gt;AppModule -->
<g id="edge12" class="edge"><title>{ provide: APP_BASE_HREF, useValue: &#39;&lt;%= APP_BASE %&gt;&#39; }&#45;&gt;AppModule</title>
<path fill="none" stroke="black" d="M589,-266.284C589,-287.321 589,-319 589,-319 589,-319 1130.3,-319 1130.3,-319"/>
<polygon fill="black" stroke="black" points="1130.3,-322.5 1140.3,-319 1130.3,-315.5 1130.3,-322.5"/>
</g>
<!-- HomeComponent -->
<g id="node14" class="node"><title>HomeComponent</title>
<polygon fill="#ffffb3" stroke="black" points="1840.55,-190 1725.45,-190 1725.45,-154 1840.55,-154 1840.55,-190"/>
<text text-anchor="middle" x="1783" y="-167.8" font-family="Times,serif" font-size="14.00">HomeComponent</text>
</g>
<!-- HomeComponent&#45;&gt;HomeModule -->
<g id="edge13" class="edge"><title>HomeComponent&#45;&gt;HomeModule</title>
<path fill="none" stroke="black" d="M1735.33,-190.11C1735.33,-199.897 1735.33,-210 1735.33,-210 1735.33,-210 1120.63,-210 1120.63,-210 1120.63,-210 1120.63,-219.89 1120.63,-219.89"/>
<polygon fill="black" stroke="black" points="1117.13,-219.89 1120.63,-229.89 1124.13,-219.89 1117.13,-219.89"/>
</g>
<!-- SharedModule&#45;&gt;HomeModule -->
<g id="edge15" class="edge"><title>SharedModule&#45;&gt;HomeModule</title>
<path fill="none" stroke="black" d="M1897.6,-190.147C1897.6,-203.74 1897.6,-220 1897.6,-220 1897.6,-220 1136.25,-220 1136.25,-220 1136.25,-220 1136.25,-220.979 1136.25,-220.979"/>
<polygon fill="black" stroke="black" points="1132.75,-219.793 1136.25,-229.793 1139.75,-219.793 1132.75,-219.793"/>
</g>
<!-- ToolbarComponent  -->
<g id="node21" class="node"><title>ToolbarComponent </title>
<polygon fill="#fb8072" stroke="black" points="2388.65,-266 2259.35,-266 2259.35,-230 2388.65,-230 2388.65,-266"/>
<text text-anchor="middle" x="2324" y="-243.8" font-family="Times,serif" font-size="14.00">ToolbarComponent </text>
</g>
<!-- SharedModule&#45;&gt;ToolbarComponent  -->
<g id="edge22" class="edge"><title>SharedModule&#45;&gt;ToolbarComponent </title>
<path fill="none" stroke="black" stroke-dasharray="5,2" d="M1963.46,-175C2072.5,-175 2324,-175 2324,-175 2324,-175 2324,-219.955 2324,-219.955"/>
<polygon fill="black" stroke="black" points="2320.5,-219.955 2324,-229.955 2327.5,-219.955 2320.5,-219.955"/>
</g>
<!-- NavbarComponent  -->
<g id="node22" class="node"><title>NavbarComponent </title>
<polygon fill="#fb8072" stroke="black" points="2241.03,-266 2114.97,-266 2114.97,-230 2241.03,-230 2241.03,-266"/>
<text text-anchor="middle" x="2178" y="-243.8" font-family="Times,serif" font-size="14.00">NavbarComponent </text>
</g>
<!-- SharedModule&#45;&gt;NavbarComponent  -->
<g id="edge23" class="edge"><title>SharedModule&#45;&gt;NavbarComponent </title>
<path fill="none" stroke="black" stroke-dasharray="5,2" d="M1963.35,-180C2039.76,-180 2178,-180 2178,-180 2178,-180 2178,-219.777 2178,-219.777"/>
<polygon fill="black" stroke="black" points="2174.5,-219.777 2178,-229.777 2181.5,-219.777 2174.5,-219.777"/>
</g>
<!-- CommonModule  -->
<g id="node23" class="node"><title>CommonModule </title>
<polygon fill="#fb8072" stroke="black" points="2096.67,-266 1981.33,-266 1981.33,-230 2096.67,-230 2096.67,-266"/>
<text text-anchor="middle" x="2039" y="-243.8" font-family="Times,serif" font-size="14.00">CommonModule </text>
</g>
<!-- SharedModule&#45;&gt;CommonModule  -->
<g id="edge24" class="edge"><title>SharedModule&#45;&gt;CommonModule </title>
<path fill="none" stroke="black" stroke-dasharray="5,2" d="M1963.4,-185C1998.34,-185 2039,-185 2039,-185 2039,-185 2039,-219.778 2039,-219.778"/>
<polygon fill="black" stroke="black" points="2035.5,-219.778 2039,-229.778 2042.5,-219.778 2035.5,-219.778"/>
</g>
<!-- FormsModule  -->
<g id="node24" class="node"><title>FormsModule </title>
<polygon fill="#fb8072" stroke="black" points="1963.33,-266 1864.67,-266 1864.67,-230 1963.33,-230 1963.33,-266"/>
<text text-anchor="middle" x="1914" y="-243.8" font-family="Times,serif" font-size="14.00">FormsModule </text>
</g>
<!-- SharedModule&#45;&gt;FormsModule  -->
<g id="edge25" class="edge"><title>SharedModule&#45;&gt;FormsModule </title>
<path fill="none" stroke="black" stroke-dasharray="5,2" d="M1930.4,-190.011C1930.4,-190.011 1930.4,-219.855 1930.4,-219.855"/>
<polygon fill="black" stroke="black" points="1926.9,-219.855 1930.4,-229.855 1933.9,-219.855 1926.9,-219.855"/>
</g>
<!-- RouterModule  -->
<g id="node25" class="node"><title>RouterModule </title>
<polygon fill="#fb8072" stroke="black" points="1846.65,-266 1745.35,-266 1745.35,-230 1846.65,-230 1846.65,-266"/>
<text text-anchor="middle" x="1796" y="-243.8" font-family="Times,serif" font-size="14.00">RouterModule </text>
</g>
<!-- SharedModule&#45;&gt;RouterModule  -->
<g id="edge26" class="edge"><title>SharedModule&#45;&gt;RouterModule </title>
<path fill="none" stroke="black" stroke-dasharray="5,2" d="M1864.71,-172C1859.23,-172 1855.58,-172 1855.58,-172 1855.58,-172 1855.58,-248 1855.58,-248 1855.58,-248 1854.7,-248 1854.7,-248"/>
<polygon fill="black" stroke="black" points="1856.79,-244.5 1846.79,-248 1856.79,-251.5 1856.79,-244.5"/>
</g>
<!-- NameListService -->
<g id="node17" class="node"><title>NameListService</title>
<ellipse fill="#fdb462" stroke="black" cx="1623" cy="-172" rx="78.1424" ry="18"/>
<text text-anchor="middle" x="1623" y="-167.8" font-family="Times,serif" font-size="14.00">NameListService</text>
</g>
<!-- NameListService&#45;&gt;HomeModule -->
<g id="edge17" class="edge"><title>NameListService&#45;&gt;HomeModule</title>
<path fill="none" stroke="black" d="M1560.21,-182.745C1560.21,-190.642 1560.21,-200 1560.21,-200 1560.21,-200 1105,-200 1105,-200 1105,-200 1105,-219.853 1105,-219.853"/>
<polygon fill="black" stroke="black" points="1101.5,-219.853 1105,-229.853 1108.5,-219.853 1101.5,-219.853"/>
</g>
<!-- ToolbarComponent -->
<g id="node18" class="node"><title>ToolbarComponent</title>
<polygon fill="#ffffb3" stroke="black" points="2800.65,-266 2675.35,-266 2675.35,-230 2800.65,-230 2800.65,-266"/>
<text text-anchor="middle" x="2738" y="-243.8" font-family="Times,serif" font-size="14.00">ToolbarComponent</text>
</g>
<!-- ToolbarComponent&#45;&gt;SharedModule -->
<g id="edge18" class="edge"><title>ToolbarComponent&#45;&gt;SharedModule</title>
<path fill="none" stroke="black" d="M2738,-229.766C2738,-203.991 2738,-160 2738,-160 2738,-160 1973.38,-160 1973.38,-160"/>
<polygon fill="black" stroke="black" points="1973.38,-156.5 1963.38,-160 1973.38,-163.5 1973.38,-156.5"/>
</g>
<!-- NavbarComponent -->
<g id="node19" class="node"><title>NavbarComponent</title>
<polygon fill="#ffffb3" stroke="black" points="2657.03,-266 2534.97,-266 2534.97,-230 2657.03,-230 2657.03,-266"/>
<text text-anchor="middle" x="2596" y="-243.8" font-family="Times,serif" font-size="14.00">NavbarComponent</text>
</g>
<!-- NavbarComponent&#45;&gt;SharedModule -->
<g id="edge19" class="edge"><title>NavbarComponent&#45;&gt;SharedModule</title>
<path fill="none" stroke="black" d="M2596,-229.99C2596,-205.579 2596,-165 2596,-165 2596,-165 1973.32,-165 1973.32,-165"/>
<polygon fill="black" stroke="black" points="1973.32,-161.5 1963.32,-165 1973.32,-168.5 1973.32,-161.5"/>
</g>
<!-- RouterModule -->
<g id="node20" class="node"><title>RouterModule</title>
<polygon fill="#8dd3c7" stroke="black" points="2510.65,-266 2507.65,-270 2486.65,-270 2483.65,-266 2413.35,-266 2413.35,-230 2510.65,-230 2510.65,-266"/>
<text text-anchor="middle" x="2462" y="-243.8" font-family="Times,serif" font-size="14.00">RouterModule</text>
</g>
<!-- RouterModule&#45;&gt;SharedModule -->
<g id="edge21" class="edge"><title>RouterModule&#45;&gt;SharedModule</title>
<path fill="none" stroke="black" d="M2462,-229.909C2462,-206.867 2462,-170 2462,-170 2462,-170 1973.6,-170 1973.6,-170"/>
<polygon fill="black" stroke="black" points="1973.6,-166.5 1963.6,-170 1973.6,-173.5 1973.6,-166.5"/>
</g>
</g>
</svg>
